# xmcd
#
# Track frame offsets: 
#        150
#        14904
#        31292
#        49719
#        64373
#        80633
#        96442
#        108444
#        123620
#        140241
#        157331
#        173961
#        192669
#        209688
#
# Disc length: 3028 seconds
#
# Revision: 0
# Processed by: cddbd v1.5.2PL0 Copyright (c) Steve Scherf et al.
# Submitted via: ExactAudioCopy v0.95b4
#
DISCID=e60bd20e
DTITLE=Алексей Багрянцев - С днем рождения
DYEAR=2010
DGENRE=Шансон
TTITLE0=01 - С днем рождения
TTITLE1=02 - В сердце твоем
TTITLE2=03 - Мне не хватает твоих глаз
TTITLE3=04 - Привет малыш
TTITLE4=05 - Я ждал тебя миллионы лет
TTITLE5=06 - Как будто мы с тобой
TTITLE6=07 - Твои глаза-магнит
TTITLE7=08 - На нуле
TTITLE8=09 - Два сердца
TTITLE9=10 - Любимый взгляд
TTITLE10=11 - Ты
TTITLE11=12 - Вернется к нам любовь
TTITLE12=13 - Последнее свидание
TTITLE13=14 - Когда зима в душе пройдет
EXTD=
EXTT0=
EXTT1=
EXTT2=
EXTT3=
EXTT4=
EXTT5=
EXTT6=
EXTT7=
EXTT8=
EXTT9=
EXTT10=
EXTT11=
EXTT12=
EXTT13=
PLAYORDER=
